# xmcd
#
# Track frame offsets:
#	225
#	26306
#	47350
#	67970
#	85607
#	99917
#
# Disc length: 1580 seconds
#
# Revision: 1
# Processed by: cddbd v1.4b42PL1 Copyright (c) Steve Scherf et al.
# Submitted via: audiograbber 1.80
#
DISCID=34062906
DTITLE=Blues Combustion - Demolicious
DYEAR=1900
DGENRE=
TTITLE0=Superstition
TTITLE1=No matter what they say
TTITLE2=Luberta
TTITLE3=The Sky is crying
TTITLE4=No more doggin'
TTITLE5=Coldshot
EXTD=Demo cd van de formatie Blues Combustion
EXTT0=
EXTT1=
EXTT2=
EXTT3=
EXTT4=
EXTT5=
PLAYORDER=
